<svg xmlns="http://www.w3.org/2000/svg" xml:space="preserve" width="2000" height="108" data-id="lg_Q5Me3QRo6ecITsdvQt" data-version="1" viewBox="0 0 2000 108"><g data-padding="20"><g transform="translate(10 1.908)scale(.96466)"><rect width="481.193" height="108.48" x="388.284" y="-400.3" fill="none" rx="0" ry="0" transform="translate(439.9 400.06)"/><path fill="#ff851b" d="M843.16 83.65h-7.69q-1.92 0-1.92-1.97 0-2.57.11-5.15.12-2.58.17-5.16.14-5.44.19-10.85.04-5.41.04-10.81 0-6.84-.09-13.68-.1-6.85-.28-13.64v-.47q0-.38.11-1.69.12-1.31.87-1.31.66 0 1.41.94.75.93 1.08 1.35 7.21 9.8 13.92 20.04 6.7 10.25 13.73 20.18.24.33.47.33.24 0 .47-.33 7.22-9.98 14.09-20.25 6.86-10.26 14.22-20.11.33-.42 1.1-1.33.78-.92 1.39-.92.79 0 .89 1.32.09 1.31.09 1.68v.47q-.19 6.85-.28 13.71-.09 6.87-.09 13.71 0 5.4.04 10.81.05 5.41.19 10.85.09 2.58.19 5.16.09 2.58.09 5.15 0 1.97-1.92 1.97h-8.06q-1.03 0-1.43-.47t-.49-1.4q-.05-.66-.05-1.43v-1.48l-.1-6.8q-.09-5.11-.14-10.21-.04-5.11-.04-10.22 0-.1-.03-.59-.02-.49-.25-.49-.19 0-.43.35-.23.35-.32.45-3.05 4.68-6.03 9.44-2.97 4.76-6.02 9.49-1.22 1.92-2.44 3.89t-2.53 3.85q-.28.37-.66.82-.37.44-.93.44-.52 0-.92-.4-.4-.39-.68-.77-1.17-1.64-2.32-3.33-1.15-1.68-2.27-3.37-3.28-4.78-6.54-9.64-3.26-4.85-6.63-9.58-.05-.09-.28-.4-.24-.3-.43-.3-.23 0-.28.46-.04.47-.04.57 0 4.97-.05 9.91-.05 4.95-.14 9.92l-.1 6.6q0 .66.03 1.41.02.75-.07 1.41-.1.93-.47 1.4-.38.47-1.45.47m102.74.01h-6.42q-1.64 0-1.92-1.69-.14-.93-.26-1.89t-.21-1.9q0-.14-.1-.49-.09-.36-.32-.36-.19 0-.4.21-.21.22-.31.36-3.09 3.56-7.52 5.11-4.43 1.54-9.07 1.54-3.8 0-7.34-1.33-3.54-1.34-5.81-4.1-2.27-2.77-2.27-7.04 0-5.43.07-10.89.07-5.47.07-10.86v-7.26q0-1.92 1.92-1.92h7.22q1.92 0 1.92 1.92v7.36q0 4.4-.05 8.86-.04 4.45 0 8.9.1 3.71 2.42 5.23t5.69 1.52q4.22 0 7.18-2.25 2.95-2.25 4.52-5.79 1.57-3.53 1.57-7.38V43.07q0-1.92 1.92-1.92h7.17q1.92 0 1.92 1.92 0 2.01-.02 4.03t-.02 4.03q0 5.16.07 10.36t.12 10.36q.04 2.44.11 4.9t.07 4.94q0 1.97-1.92 1.97m15.51 1.22q-2.67 0-5.58-.98-2.9-.99-4.83-2.96-.56-.56-.56-1.22 0-.28.31-1.43.3-1.14.68-2.36.37-1.22.47-1.6.18-.56.51-1.1t1.03-.54q.89 0 2.77 1.18 1.87 1.17 4.31 1.17 4.27 0 4.27-4.13 0-2.67-1.71-3.7-1.72-1.03-3.68-2.06-3.94-2.11-6-5.16-2.07-3.05-2.07-7.59 0-5.77 3.4-9 3.4-3.24 9.07-3.24.7 0 2.18.19t3.07.59q1.6.39 2.72 1.07 1.13.68 1.13 1.62 0 .89-.38 1.95-.37 1.05-.61 1.94-.19.61-.51 1.17-.33.57-1.13.57-.98 0-2.11-.52-1.12-.52-2.44-.52-1.78 0-3.14 1.06-1.36 1.05-1.36 2.98 0 2.2 1.34 3.42t3.3 2.15q1.97.94 3.94 2.3t3.31 3.77q1.33 2.42 1.33 6.64 0 6-3.35 10.17t-9.68 4.17m15.41-59.72q0-2.58 1.92-4.43t4.5-1.85q2.62 0 4.62 1.9 1.99 1.9 1.99 4.57 0 2.58-1.9 4.48-1.9 1.89-4.52 1.89-2.67 0-4.64-1.94-1.97-1.95-1.97-4.62m.7 28.27V43.07q0-1.92 1.92-1.92h7.22q1.92 0 1.92 1.92 0 9.65.05 19.33t.05 19.34q0 1.92-1.92 1.92h-7.41q-1.92 0-1.92-1.92 0-7.08.04-14.16.05-7.07.05-14.15m44.12 19.45q.65 0 1 .42t.59.94q.19.38.75 1.83t1.05 2.86q.5 1.4.5 1.69 0 1.03-1.62 1.78t-3.87 1.22q-2.25.46-4.26.67-2.02.22-2.86.22-9.89 0-15.43-5.86-5.53-5.86-5.53-15.61 0-6.52 2.56-11.72 2.55-5.2 7.38-8.25t11.58-3.05q2.62 0 5.67.59 3.05.58 5.34 1.85.47.23.78.54.3.3.3.87 0 .46-.23.93l-2.16 5.44q-.51 1.31-1.64 1.31-.47 0-1.03-.23-1.55-.52-3.09-.87-1.55-.35-3.19-.35-5.67 0-8.42 3.56-2.74 3.56-2.74 8.86 0 5.11 2.6 8.6 2.61 3.5 8.09 3.5 1.78 0 3.42-.43 1.64-.42 3.28-1.03.28-.09.57-.19.28-.09.61-.09m27.83-52.97q0-1.97 1.92-1.97h8.02q1.92 0 1.92 1.93 0 8.39.07 16.78t.07 16.78q0 4.54-.03 9.16-.02 4.62-.02 9.21 0 .57.56.57h25.74q1.87 0 1.92 1.87l.14 7.45q.09 1.97-1.92 1.97h-36.52q-1.92 0-1.92-1.97 0-2.57.07-5.13.07-2.55.12-5.13.14-10.78.14-21.52 0-7.54-.14-15.02t-.14-14.98m43.81 5.25q0-2.58 1.92-4.43t4.5-1.85q2.63 0 4.62 1.9t1.99 4.57q0 2.58-1.9 4.48-1.89 1.89-4.52 1.89-2.67 0-4.64-1.94-1.97-1.95-1.97-4.62m.7 28.27V43.07q0-1.92 1.93-1.92h7.21q1.93 0 1.93 1.92 0 9.65.04 19.33.05 9.68.05 19.34 0 1.92-1.92 1.92h-7.41q-1.92 0-1.92-1.92 0-7.08.05-14.16.04-7.07.04-14.15m62.39 9.09q0 6.05-2.53 11.06-2.53 5.02-7.17 8-4.64 2.97-10.97 2.97-7.64 0-13.08-4.83-.14-.09-.31-.25-.16-.17-.39-.17-.24 0-.28.35-.05.36-.05.5 0 1.12-.1 2.32-.09 1.19-1.73 1.19h-7.5q-1.92 0-1.92-1.97 0-2.57.07-5.13.07-2.55.12-5.13.09-5.39.14-10.78.04-5.39.04-10.78 0-5.4-.04-10.79-.05-5.39-.14-10.78-.05-2.58-.12-5.13t-.07-5.13q0-1.97 1.92-1.97h7.27q1.12 0 1.47.47t.45 1.45q.19 1.5.11 4.08-.07 2.58-.02 4.26.05 4.41.07 8.77.03 4.36.03 8.77 0 .18.04.46.05.29.33.29.23 0 .61-.29 6.09-4.31 13.55-4.31 6.65 0 11.13 3.02 4.48 3.03 6.77 8.14 2.3 5.11 2.3 11.34m-22.88 11.67q3.47 0 6.1-1.73 2.62-1.74 4.1-4.59 1.48-2.86 1.48-6.19 0-3.38-1.46-6.26-1.45-2.88-4.05-4.66-2.6-1.79-6.17-1.79-3.18 0-6.11 1.39-2.93 1.38-4.62 4.19-.19.33-.56 1.08-.38.75-.47 1.13-.09.56-.05 1.31.05.75.05 1.36v3.58q0 1.81-.05 3.59 1.5 3.84 4.64 5.72 3.14 1.87 7.17 1.87m27.89-33.04h6.28q1.78 0 1.92 1.73l.47 5.34q0 .05.1.68.09.64.32.64.24 0 .5-.52l.3-.61q1.92-3.61 4.69-5.67 2.76-2.06 6.98-2.06.99 0 2.51.16 1.52.17 1.52 1.57 0 .71-.28 2.21t-.63 3.02-.54 2.32-.59 1.24q-.39.45-1.33.45-.47 0-.92-.07-.44-.07-.96-.07-3.7 0-6.23 2.32t-3.8 5.69q-1.26 3.38-1.26 6.66v15.56q0 1.92-1.92 1.92h-7.27q-1.92 0-1.92-1.97 0-7.26.07-14.5.07-7.25.07-14.47v-9.65q0-1.92 1.92-1.92m42.46 43.39q-6.09 0-10.22-2.9-4.12-2.91-6.21-7.71-2.08-4.81-2.08-10.43v-.75q.09-5.91 2.46-11.11 2.37-5.21 6.87-8.42t10.87-3.21q3.94 0 7.34 1.48 3.4 1.47 6.35 4.01.33.32.56.32.56 0 .54-1.17t.33-2.34 1.85-1.17h6.61q1.92 0 1.92 1.92 0 2.01-.02 4.03-.03 2.02-.03 4.03 0 5.16.07 10.36t.12 10.36q.05 2.44.12 4.9t.07 4.94q0 1.97-1.92 1.97h-7.36q-1.27 0-1.64-.82-.38-.82-.33-1.94.05-1.13 0-2.02 0-.14-.05-.47-.04-.33-.28-.33-.19 0-.35.14-.16.15-.31.24-3.28 2.76-7.07 4.43-3.8 1.66-8.21 1.66m4.78-9.98q3.33 0 6.17-1.38 2.83-1.39 4.43-4.39.09-.18.44-.96.36-.77.36-.96 0-1.64-.03-3.28-.02-1.64-.02-3.23 0-.75.05-1.67.04-.91-.05-1.62-.05-.32-.35-.98-.31-.66-.45-.94-1.64-2.95-4.64-4.4-3-1.46-6.28-1.46-3.47 0-6.09 1.74-2.63 1.73-4.11 4.57-1.47 2.83-1.47 6.21 0 3.37 1.54 6.28 1.55 2.91 4.29 4.69 2.75 1.78 6.21 1.78m29.49-33.41h6.29q1.78 0 1.92 1.73l.47 5.34q0 .05.09.68.09.64.33.64.23 0 .49-.52.26-.51.3-.61 1.93-3.61 4.69-5.67 2.77-2.06 6.99-2.06.98 0 2.5.16 1.53.17 1.53 1.57 0 .71-.28 2.21t-.64 3.02q-.35 1.52-.54 2.32-.18.8-.58 1.24-.4.45-1.34.45-.47 0-.91-.07-.45-.07-.96-.07-3.71 0-6.24 2.32t-3.79 5.69q-1.27 3.38-1.27 6.66v15.56q0 1.92-1.92 1.92h-7.27q-1.92 0-1.92-1.97 0-7.26.07-14.5.07-7.25.07-14.47v-9.65q0-1.92 1.92-1.92"/><path fill="#ff851b" d="M1278.27 99.21h-6.84q-.66 0-1.41-.23t-.75-1.12q0-.38.12-.71.11-.33.26-.65 1.78-4.08 3.68-8.11 1.89-4.03 3.67-8.11v-.42l-7.78-18q-3.89-9-7.73-18.05-.33-.75-.33-1.31 0-.89.73-1.13.72-.23 1.38-.23h8.2q.75 0 1.11.3.35.31.67.92.8 1.59 1.43 3.32.64 1.74 1.25 3.38 1.64 4.08 3.21 8.18t3.3 8.13q.1.14.24.4t.32.26q.19 0 .33-.24.14-.23.19-.37 1.88-4.03 3.61-8.18t3.52-8.23q.7-1.64 1.38-3.4.68-1.75 1.52-3.35.66-1.12 1.78-1.12h5.82q.7 0 1.4.23.7.24.7 1.13 0 .56-.32 1.31-3.43 8.34-6.96 16.64-3.54 8.3-7.01 16.64-1.46 3.52-2.93 7.01-1.48 3.49-2.98 6.96-.75 1.73-1.47 3.51-.73 1.79-1.53 3.47-.56 1.17-1.78 1.17M743.15 19.82v52.8h52.8v-52.8Zm36.353 36.432c-3.38 1.32-6.81.594-7.656-1.597-.87-2.205 1.188-5.056 4.554-6.376q1.716-.633 3.273-.633l-2.415-14.613-12.474 7.353 2.323 17.833-.106.013c.185 1.993-1.53 4.356-4.316 5.702-3.274 1.558-6.732 1.11-7.762-1.03-1.03-2.111.792-5.12 4.053-6.692a9.24 9.24 0 0 1 4.092-.91l-2.19-16.817 19.1-11.286s3.96 22.413 4.091 22.717c.858 2.204-1.188 5.042-4.567 6.362"/><path fill="#ff851b" d="M799.91 33.02v43.56h-44.88v6.6h51.48V33.02Z"/></g><path fill="transparent" stroke="transparent" d="M717 0h566v108H717z"/></g></svg>